<mxfile host="app.diagrams.net" agent="Mozilla/5.0 (Windows NT 10.0; Win64; x64) AppleWebKit/537.36 (KHTML, like Gecko) Chrome/130.0.0.0 Safari/537.36" version="24.8.4">
  <diagram id="C5RBs43oDa-KdzZeNtuy" name="Page-1">
    <mxGraphModel dx="713" dy="795" grid="1" gridSize="10" guides="1" tooltips="1" connect="1" arrows="1" fold="1" page="1" pageScale="1" pageWidth="827" pageHeight="1169" math="0" shadow="0">
      <root>
        <mxCell id="WIyWlLk6GJQsqaUBKTNV-0" />
        <mxCell id="WIyWlLk6GJQsqaUBKTNV-1" parent="WIyWlLk6GJQsqaUBKTNV-0" />
        <mxCell id="wvkfcdVhvqRz7yYf-nKR-15" style="edgeStyle=none;curved=1;rounded=0;orthogonalLoop=1;jettySize=auto;html=1;exitX=0.5;exitY=1;exitDx=0;exitDy=0;entryX=0.5;entryY=0;entryDx=0;entryDy=0;fontSize=12;startSize=8;endSize=8;" edge="1" parent="WIyWlLk6GJQsqaUBKTNV-1" source="wvkfcdVhvqRz7yYf-nKR-1" target="wvkfcdVhvqRz7yYf-nKR-2">
          <mxGeometry relative="1" as="geometry" />
        </mxCell>
        <mxCell id="wvkfcdVhvqRz7yYf-nKR-1" value="start" style="ellipse;whiteSpace=wrap;html=1;" vertex="1" parent="WIyWlLk6GJQsqaUBKTNV-1">
          <mxGeometry x="300" y="70" width="120" height="50" as="geometry" />
        </mxCell>
        <mxCell id="wvkfcdVhvqRz7yYf-nKR-16" style="edgeStyle=none;curved=1;rounded=0;orthogonalLoop=1;jettySize=auto;html=1;fontSize=12;startSize=8;endSize=8;" edge="1" parent="WIyWlLk6GJQsqaUBKTNV-1" source="wvkfcdVhvqRz7yYf-nKR-2" target="wvkfcdVhvqRz7yYf-nKR-4">
          <mxGeometry relative="1" as="geometry" />
        </mxCell>
        <mxCell id="wvkfcdVhvqRz7yYf-nKR-2" value="get mouse position" style="rounded=1;whiteSpace=wrap;html=1;" vertex="1" parent="WIyWlLk6GJQsqaUBKTNV-1">
          <mxGeometry x="300" y="170" width="120" height="60" as="geometry" />
        </mxCell>
        <mxCell id="wvkfcdVhvqRz7yYf-nKR-17" style="edgeStyle=none;curved=1;rounded=0;orthogonalLoop=1;jettySize=auto;html=1;fontSize=12;startSize=8;endSize=8;" edge="1" parent="WIyWlLk6GJQsqaUBKTNV-1" source="wvkfcdVhvqRz7yYf-nKR-4" target="wvkfcdVhvqRz7yYf-nKR-5">
          <mxGeometry relative="1" as="geometry" />
        </mxCell>
        <mxCell id="wvkfcdVhvqRz7yYf-nKR-26" style="edgeStyle=none;curved=1;rounded=0;orthogonalLoop=1;jettySize=auto;html=1;exitX=0;exitY=0.5;exitDx=0;exitDy=0;fontSize=12;startSize=8;endSize=8;" edge="1" parent="WIyWlLk6GJQsqaUBKTNV-1" source="wvkfcdVhvqRz7yYf-nKR-4">
          <mxGeometry relative="1" as="geometry">
            <mxPoint x="200" y="335" as="targetPoint" />
          </mxGeometry>
        </mxCell>
        <mxCell id="wvkfcdVhvqRz7yYf-nKR-4" value="is the mouse position inside the grid?" style="rhombus;whiteSpace=wrap;html=1;" vertex="1" parent="WIyWlLk6GJQsqaUBKTNV-1">
          <mxGeometry x="304" y="280" width="110" height="110" as="geometry" />
        </mxCell>
        <mxCell id="wvkfcdVhvqRz7yYf-nKR-18" style="edgeStyle=none;curved=1;rounded=0;orthogonalLoop=1;jettySize=auto;html=1;fontSize=12;startSize=8;endSize=8;" edge="1" parent="WIyWlLk6GJQsqaUBKTNV-1" source="wvkfcdVhvqRz7yYf-nKR-5" target="wvkfcdVhvqRz7yYf-nKR-7">
          <mxGeometry relative="1" as="geometry" />
        </mxCell>
        <mxCell id="wvkfcdVhvqRz7yYf-nKR-5" value="calculate the tile that&amp;nbsp; was pressed" style="rounded=1;whiteSpace=wrap;html=1;" vertex="1" parent="WIyWlLk6GJQsqaUBKTNV-1">
          <mxGeometry x="300" y="440" width="120" height="60" as="geometry" />
        </mxCell>
        <mxCell id="wvkfcdVhvqRz7yYf-nKR-21" style="edgeStyle=none;curved=1;rounded=0;orthogonalLoop=1;jettySize=auto;html=1;exitX=1;exitY=0.5;exitDx=0;exitDy=0;fontSize=12;startSize=8;endSize=8;" edge="1" parent="WIyWlLk6GJQsqaUBKTNV-1" source="wvkfcdVhvqRz7yYf-nKR-6" target="wvkfcdVhvqRz7yYf-nKR-9">
          <mxGeometry relative="1" as="geometry" />
        </mxCell>
        <mxCell id="wvkfcdVhvqRz7yYf-nKR-29" style="edgeStyle=none;curved=1;rounded=0;orthogonalLoop=1;jettySize=auto;html=1;exitX=0.5;exitY=1;exitDx=0;exitDy=0;fontSize=12;startSize=8;endSize=8;" edge="1" parent="WIyWlLk6GJQsqaUBKTNV-1" source="wvkfcdVhvqRz7yYf-nKR-6" target="wvkfcdVhvqRz7yYf-nKR-12">
          <mxGeometry relative="1" as="geometry" />
        </mxCell>
        <mxCell id="wvkfcdVhvqRz7yYf-nKR-6" value="is count = 2?" style="rhombus;whiteSpace=wrap;html=1;" vertex="1" parent="WIyWlLk6GJQsqaUBKTNV-1">
          <mxGeometry x="304.5" y="760" width="111" height="110" as="geometry" />
        </mxCell>
        <mxCell id="wvkfcdVhvqRz7yYf-nKR-19" style="edgeStyle=none;curved=1;rounded=0;orthogonalLoop=1;jettySize=auto;html=1;exitX=0.5;exitY=1;exitDx=0;exitDy=0;fontSize=12;startSize=8;endSize=8;" edge="1" parent="WIyWlLk6GJQsqaUBKTNV-1" source="wvkfcdVhvqRz7yYf-nKR-7" target="wvkfcdVhvqRz7yYf-nKR-8">
          <mxGeometry relative="1" as="geometry" />
        </mxCell>
        <mxCell id="wvkfcdVhvqRz7yYf-nKR-7" value="set count = 1" style="rounded=1;whiteSpace=wrap;html=1;" vertex="1" parent="WIyWlLk6GJQsqaUBKTNV-1">
          <mxGeometry x="299" y="555" width="120" height="60" as="geometry" />
        </mxCell>
        <mxCell id="wvkfcdVhvqRz7yYf-nKR-20" style="edgeStyle=none;curved=1;rounded=0;orthogonalLoop=1;jettySize=auto;html=1;fontSize=12;startSize=8;endSize=8;" edge="1" parent="WIyWlLk6GJQsqaUBKTNV-1" source="wvkfcdVhvqRz7yYf-nKR-8" target="wvkfcdVhvqRz7yYf-nKR-6">
          <mxGeometry relative="1" as="geometry" />
        </mxCell>
        <mxCell id="wvkfcdVhvqRz7yYf-nKR-8" value="go to top left of tile that has been clicked on" style="rounded=1;whiteSpace=wrap;html=1;" vertex="1" parent="WIyWlLk6GJQsqaUBKTNV-1">
          <mxGeometry x="300" y="660" width="120" height="60" as="geometry" />
        </mxCell>
        <mxCell id="wvkfcdVhvqRz7yYf-nKR-22" style="edgeStyle=none;curved=1;rounded=0;orthogonalLoop=1;jettySize=auto;html=1;entryX=0;entryY=0.5;entryDx=0;entryDy=0;fontSize=12;startSize=8;endSize=8;" edge="1" parent="WIyWlLk6GJQsqaUBKTNV-1" source="wvkfcdVhvqRz7yYf-nKR-9" target="wvkfcdVhvqRz7yYf-nKR-11">
          <mxGeometry relative="1" as="geometry" />
        </mxCell>
        <mxCell id="wvkfcdVhvqRz7yYf-nKR-9" value="colour tile yellow&amp;nbsp;" style="rounded=1;whiteSpace=wrap;html=1;" vertex="1" parent="WIyWlLk6GJQsqaUBKTNV-1">
          <mxGeometry x="480" y="785" width="120" height="60" as="geometry" />
        </mxCell>
        <mxCell id="wvkfcdVhvqRz7yYf-nKR-23" style="edgeStyle=none;curved=1;rounded=0;orthogonalLoop=1;jettySize=auto;html=1;fontSize=12;startSize=8;endSize=8;" edge="1" parent="WIyWlLk6GJQsqaUBKTNV-1" source="wvkfcdVhvqRz7yYf-nKR-11">
          <mxGeometry relative="1" as="geometry">
            <mxPoint x="720" y="200" as="targetPoint" />
          </mxGeometry>
        </mxCell>
        <mxCell id="wvkfcdVhvqRz7yYf-nKR-11" value="store position of tile as start" style="rounded=1;whiteSpace=wrap;html=1;" vertex="1" parent="WIyWlLk6GJQsqaUBKTNV-1">
          <mxGeometry x="660" y="785" width="120" height="60" as="geometry" />
        </mxCell>
        <mxCell id="wvkfcdVhvqRz7yYf-nKR-30" style="edgeStyle=none;curved=1;rounded=0;orthogonalLoop=1;jettySize=auto;html=1;exitX=0.5;exitY=1;exitDx=0;exitDy=0;fontSize=12;startSize=8;endSize=8;" edge="1" parent="WIyWlLk6GJQsqaUBKTNV-1" source="wvkfcdVhvqRz7yYf-nKR-12" target="wvkfcdVhvqRz7yYf-nKR-13">
          <mxGeometry relative="1" as="geometry" />
        </mxCell>
        <mxCell id="wvkfcdVhvqRz7yYf-nKR-12" value="colour tile red" style="rounded=1;whiteSpace=wrap;html=1;" vertex="1" parent="WIyWlLk6GJQsqaUBKTNV-1">
          <mxGeometry x="300" y="910" width="120" height="60" as="geometry" />
        </mxCell>
        <mxCell id="wvkfcdVhvqRz7yYf-nKR-31" style="edgeStyle=none;curved=1;rounded=0;orthogonalLoop=1;jettySize=auto;html=1;exitX=0.5;exitY=1;exitDx=0;exitDy=0;entryX=0.5;entryY=0;entryDx=0;entryDy=0;fontSize=12;startSize=8;endSize=8;" edge="1" parent="WIyWlLk6GJQsqaUBKTNV-1" source="wvkfcdVhvqRz7yYf-nKR-13" target="wvkfcdVhvqRz7yYf-nKR-28">
          <mxGeometry relative="1" as="geometry" />
        </mxCell>
        <mxCell id="wvkfcdVhvqRz7yYf-nKR-13" value="store position as finish" style="rounded=1;whiteSpace=wrap;html=1;" vertex="1" parent="WIyWlLk6GJQsqaUBKTNV-1">
          <mxGeometry x="300" y="1020" width="120" height="60" as="geometry" />
        </mxCell>
        <mxCell id="wvkfcdVhvqRz7yYf-nKR-25" style="edgeStyle=none;curved=1;rounded=0;orthogonalLoop=1;jettySize=auto;html=1;fontSize=12;startSize=8;endSize=8;" edge="1" parent="WIyWlLk6GJQsqaUBKTNV-1" source="wvkfcdVhvqRz7yYf-nKR-14" target="wvkfcdVhvqRz7yYf-nKR-2">
          <mxGeometry relative="1" as="geometry" />
        </mxCell>
        <mxCell id="wvkfcdVhvqRz7yYf-nKR-14" value="set count= 2" style="rounded=1;whiteSpace=wrap;html=1;" vertex="1" parent="WIyWlLk6GJQsqaUBKTNV-1">
          <mxGeometry x="480" y="170" width="120" height="60" as="geometry" />
        </mxCell>
        <mxCell id="wvkfcdVhvqRz7yYf-nKR-24" value="" style="endArrow=classic;html=1;rounded=0;fontSize=12;startSize=8;endSize=8;curved=1;entryX=1;entryY=0.5;entryDx=0;entryDy=0;" edge="1" parent="WIyWlLk6GJQsqaUBKTNV-1" target="wvkfcdVhvqRz7yYf-nKR-14">
          <mxGeometry width="50" height="50" relative="1" as="geometry">
            <mxPoint x="720" y="200" as="sourcePoint" />
            <mxPoint x="520" y="530" as="targetPoint" />
          </mxGeometry>
        </mxCell>
        <mxCell id="wvkfcdVhvqRz7yYf-nKR-27" value="" style="endArrow=classic;html=1;rounded=0;fontSize=12;startSize=8;endSize=8;curved=1;" edge="1" parent="WIyWlLk6GJQsqaUBKTNV-1">
          <mxGeometry width="50" height="50" relative="1" as="geometry">
            <mxPoint x="200" y="340" as="sourcePoint" />
            <mxPoint x="200" y="1110" as="targetPoint" />
          </mxGeometry>
        </mxCell>
        <mxCell id="wvkfcdVhvqRz7yYf-nKR-28" value="end" style="ellipse;whiteSpace=wrap;html=1;" vertex="1" parent="WIyWlLk6GJQsqaUBKTNV-1">
          <mxGeometry x="300" y="1130" width="120" height="50" as="geometry" />
        </mxCell>
        <mxCell id="wvkfcdVhvqRz7yYf-nKR-32" value="" style="endArrow=classic;html=1;rounded=0;fontSize=12;startSize=8;endSize=8;curved=1;" edge="1" parent="WIyWlLk6GJQsqaUBKTNV-1">
          <mxGeometry width="50" height="50" relative="1" as="geometry">
            <mxPoint x="200" y="1110" as="sourcePoint" />
            <mxPoint x="360" y="1110" as="targetPoint" />
          </mxGeometry>
        </mxCell>
      </root>
    </mxGraphModel>
  </diagram>
</mxfile>
